<svg version="1" xmlns="http://www.w3.org/2000/svg" width="533.333" height="533.333" viewBox="0 0 400.000000 400.000000"><path d="M0 200v200h400V0H0v200zM203.3 48.4c10.4 3.1 15.1 10 15 22-.1 14.5-7.7 29.3-21.9 42.5-9.9 9.2-16.6 12.6-23.7 11.8-9-1.1-13.4-6.3-12.2-14.3 1.1-7.6 7.1-11.8 20.7-14.4 10.5-2.1 17.8-9.3 18.6-18.5 1-12-7-14.9-24-8.5-26.5 9.9-63.2 50.7-84.7 94-12.1 24.5-17.8 44.7-17.9 63.6-.1 26.7 9.1 42.4 25 42.4 14.2 0 22.9-7.4 33.2-28.3 3.7-7.4 9-16.7 11.7-20.7 14.9-21.1 36.1-36.4 56.1-40.4 10.3-2.1 16.4-2 21.7.4l4.4 2 2.2-2c1.9-1.8 3.5-2 16.5-2 20.6 0 21.1.7 13.1 19.8-2.7 6.5-7.9 18.7-11.6 27.2-10.1 23.2-13.5 33.2-13.5 39.5 0 4.4.4 5.6 2 6.5 3.1 1.7 11.7-.5 20.8-5.1 8.8-4.5 21.9-15 21.3-17-.3-.8-.6-8.3-.9-16.7-.3-11.3 0-17.9 1.3-25.5 3.4-20.6 14.3-47.5 27.4-67.2 22.4-33.7 54.6-61.8 72.6-63.3 7.4-.6 10.2.3 12.5 4.1 2.5 4.1 2.7 16.2.4 24.9-5 19.4-22.4 54-43.1 85.6-9.4 14.5-27.9 39.8-30.8 42.2-1.9 1.6-1.9 4.2.1 13.8 4.3 21.7 16.4 33.9 39.9 40.7 11.5 3.3 13.9 5 14.3 10.2.3 3.5-.3 4.8-4.5 10-19.1 23.8-54.1 36.3-100.8 36.3-12.7 0-38.8-1-63.5-2.5-26.7-1.6-58.9-2.5-89.5-2.5-47.1 0-64.2 1.8-87.3 9.2-13.4 4.3-16.2 4.3-16.2 0 .1-3.7 1.6-6.1 8.4-13.2 20.8-21.9 60.7-34 112.1-34 13.2 0 75.3 2.4 91.5 3.5 13.6.9 47.1 2.4 69 3.1 26.8.8 40.5-.9 46.2-5.6 3-2.6 1.9-3.3-8.6-5.4-15.3-3.1-31.2-12.7-39.2-23.8-2.1-2.9-3.9-5.5-4-5.7-.2-.2-3.1 1.9-6.6 4.6-17.5 13.8-34.7 20.3-53.9 20.3-14.6 0-20.7-2.7-24.4-11l-1.8-3.9-5.1 4.6c-2.8 2.5-7.6 5.8-10.6 7.2-5 2.3-6.7 2.6-17.5 2.6-11.1 0-12.5-.2-18.3-2.9-6.7-3.1-11.5-7.8-13.9-13.4l-1.4-3.4-3.2 2.6c-7.4 6-19.7 12.8-27.4 15.3-7.6 2.3-9.3 2.5-21.5 2-21-.7-33.6-5.3-44.4-16.1-10.6-10.7-15.2-23.1-16.1-43.6-.9-21.2 3.1-38.3 14.3-61.8 16-33.8 48.4-69.7 84.4-93.9 32.1-21.5 69.1-33.4 87.3-27.9z"/><path d="M362 110.7c-13.4 14.5-28.7 39.9-37.4 62.2-3.7 9.2-9.2 29.9-8.3 30.8 1.1 1.1 22-30.9 34.5-52.7 10-17.7 20.3-39.2 20.9-44 .8-6.1-1.4-5.2-9.7 3.7zM206.9 195.4c-2 .7-5.1 2.3-6.8 3.6-9.4 6.7-22.3 28.2-26.2 43.9-3.7 14.5-1.4 22.1 6.5 22.1 6.9 0 13.2-6.7 18.6-19.8 1.8-4.2 7-16.4 11.7-27.1 8.3-18.8 8.5-19.4 6.7-21.2-2.7-2.5-6.3-3.1-10.5-1.5z"/></svg>